<?xml version="1.0" standalone="no"?>
<!DOCTYPE svg PUBLIC "-//W3C//DTD SVG 20010904//EN"
 "http://www.w3.org/TR/2001/REC-SVG-20010904/DTD/svg10.dtd">
<svg version="1.0" xmlns="http://www.w3.org/2000/svg"
 width="344.000000pt" height="344.000000pt" viewBox="0 0 344.000000 344.000000"
 preserveAspectRatio="xMidYMid meet">
<metadata>
Created by potrace 1.11, written by Peter Selinger 2001-2013
</metadata>
<g transform="translate(0.000000,344.000000) scale(0.100000,-0.100000)"
fill="#000000" stroke="none">
<path d="M1716 3343 c-3 -3 -123 -243 -267 -532 -143 -289 -262 -527 -263
-528 -1 -1 -22 -5 -46 -8 -25 -3 -70 -9 -100 -15 -30 -5 -75 -12 -100 -15 -64
-9 -103 -15 -205 -30 -49 -8 -106 -16 -125 -19 -137 -19 -201 -28 -245 -36
-27 -5 -68 -11 -90 -14 -22 -3 -69 -9 -105 -15 -36 -5 -85 -13 -110 -16 -25
-4 -47 -9 -50 -11 -2 -3 68 -76 157 -162 89 -86 281 -274 427 -418 l265 -260
-9 -35 c-4 -19 -11 -61 -15 -94 -4 -32 -8 -62 -11 -66 -2 -4 -6 -24 -10 -45
-6 -46 -12 -81 -18 -109 -6 -32 -18 -103 -20 -128 -2 -12 -6 -35 -9 -52 -4
-16 -9 -50 -13 -75 -3 -24 -7 -47 -9 -50 -1 -3 -6 -27 -9 -55 -4 -27 -9 -57
-11 -65 -2 -8 -6 -33 -10 -55 -3 -22 -17 -107 -31 -189 -14 -82 -23 -151 -20
-153 2 -3 42 16 88 40 45 25 137 73 203 107 66 34 170 88 230 120 61 31 178
92 260 135 83 43 178 93 212 112 l62 34 83 -44 c81 -43 202 -107 463 -242 72
-37 171 -89 220 -115 226 -119 288 -151 292 -147 3 3 -57 379 -93 582 -12 66
-46 265 -59 345 -14 84 -16 98 -33 196 l-9 52 224 218 c123 121 315 308 426
416 111 108 199 199 196 202 -3 3 -21 8 -40 10 -57 8 -252 37 -278 41 -14 3
-75 12 -135 20 -61 9 -122 18 -135 20 -13 2 -43 7 -65 10 -23 4 -50 8 -61 10
-11 2 -45 6 -75 10 -30 4 -66 9 -80 11 -14 2 -72 11 -130 20 -159 23 -175 26
-177 27 0 1 -120 242 -266 534 -145 293 -267 530 -271 526z"/>
</g>
</svg>
